<svg id="Layer_1" data-name="Layer 1" xmlns="http://www.w3.org/2000/svg" viewBox="0 0 560 100"><title>Artboard 1</title><path d="M65.42,48.56a143.49,143.49,0,0,1-7,13.48,71,71,0,0,1-8,11.21,39.21,39.21,0,0,1-8.93,7.63,18.35,18.35,0,0,1-9.63,2.82A19.34,19.34,0,0,1,26,82.77a25.07,25.07,0,0,1-6-2.92,38.32,38.32,0,0,1-6.21-5.12,61.86,61.86,0,0,1-6.34-7.58,5.42,5.42,0,0,1-1.09-1.76,5.71,5.71,0,0,1-.31-1.92,5,5,0,0,1,.49-1.92A8.38,8.38,0,0,1,8,59.35a8.53,8.53,0,0,1,2.28-1.81,6.16,6.16,0,0,1,3.05-.75,5,5,0,0,1,1.92.36,4.13,4.13,0,0,1,1.6,1.24Q21,66.67,25,70.5t8,3.83a10.43,10.43,0,0,0,5.77-1.89A25.12,25.12,0,0,0,44.56,67a65.09,65.09,0,0,0,5.72-8.77Q53.16,53,56.05,46.44l14.85-30.8q-5.54-.05-9.14-.05H56.83a3.42,3.42,0,0,1-1.68-.41,4.75,4.75,0,0,1-1.29-1,4.83,4.83,0,0,1-.85-1.4,4,4,0,0,1-.31-1.5,2.87,2.87,0,0,1,1.14-2.35A5.82,5.82,0,0,1,57.45,8l1,0,1,0q3.83,0,7.69-.21l7.66-.44,7.61-.44q3.8-.21,7.53-.21,3,0,4.84.18a15.54,15.54,0,0,1,3,.52,3,3,0,0,1,1.5.85,1.78,1.78,0,0,1,.41,1.14,4.22,4.22,0,0,1-.39,1.71,4,4,0,0,1-1.48,1.63A9.14,9.14,0,0,1,94.64,14a23.6,23.6,0,0,1-5.2.47q-1.5,0-3.29.13T82.24,15Z"/><path d="M93,43.85a18.9,18.9,0,0,1,4.22.52,12.92,12.92,0,0,1,4.17,1.76,10.37,10.37,0,0,1,3.18,3.29,9.41,9.41,0,0,1,1.27,5,17.66,17.66,0,0,1-.41,3.55,27.48,27.48,0,0,1-1.24,4.17,2.9,2.9,0,0,0,1.19.88,4,4,0,0,0,1.45.26,5.72,5.72,0,0,0,2.41-.62,18.3,18.3,0,0,0,2.72-1.6,31.48,31.48,0,0,0,2.79-2.23q1.4-1.24,2.64-2.48T119.64,54q1-1.11,1.68-1.89a1.2,1.2,0,0,1,.88-.36,1.62,1.62,0,0,1,1.29.75,3.4,3.4,0,0,1,.57,2.1,7.66,7.66,0,0,1-.8,3.11,11.54,11.54,0,0,1-3,3.67l-2.85,3.11A38.8,38.8,0,0,1,114,67.81a22.64,22.64,0,0,1-3.78,2.64,8.07,8.07,0,0,1-3.93,1.09,8.36,8.36,0,0,1-2.61-.41,9.42,9.42,0,0,1-2.56-1.35,31.61,31.61,0,0,1-4.24,5.28,26.08,26.08,0,0,1-5.31,4.09,27,27,0,0,1-6.31,2.67,26.48,26.48,0,0,1-7.22,1,12,12,0,0,1-3.36-.57A11.33,11.33,0,0,1,71,80.31a11,11,0,0,1-2.92-3.44,10.43,10.43,0,0,1-1.19-5.18,22.5,22.5,0,0,1,.67-5,33.17,33.17,0,0,1,2-6,37.71,37.71,0,0,1,3.47-6.11,27.08,27.08,0,0,1,5-5.43,24.26,24.26,0,0,1,6.63-3.88A22.32,22.32,0,0,1,93,43.85ZM90.32,53a9.73,9.73,0,0,0-4.68,1.22,14.2,14.2,0,0,0-4,3.21,16.22,16.22,0,0,0-2.77,4.5,13.39,13.39,0,0,0-1,5.15A16.35,16.35,0,0,0,78,69.18a7.07,7.07,0,0,0,.65,2.17A4.46,4.46,0,0,0,80.07,73a4.15,4.15,0,0,0,2.48.67,9.32,9.32,0,0,0,4.63-1.27,14.94,14.94,0,0,0,4-3.31A16.35,16.35,0,0,0,94,64.5a14,14,0,0,0,1-5.23,18.7,18.7,0,0,0-.13-2.15,5.77,5.77,0,0,0-.62-2,4,4,0,0,0-1.42-1.53A4.68,4.68,0,0,0,90.32,53Z"/><path d="M129.24,52.34a30.36,30.36,0,0,1,5.64,3.78,26.88,26.88,0,0,1,4.22,4.48,19.7,19.7,0,0,1,2.64,4.79,13.6,13.6,0,0,1,.91,4.76,8.91,8.91,0,0,1-1.68,5.3,14.46,14.46,0,0,1-4.4,4,22.33,22.33,0,0,1-6.21,2.48,29.7,29.7,0,0,1-7.06.85,22.82,22.82,0,0,1-5.23-.6,16.34,16.34,0,0,1-4.63-1.84,12.7,12.7,0,0,1-3.6-3.18,11.8,11.8,0,0,1-2.12-4.63,2.91,2.91,0,0,1-.1-.67,3.33,3.33,0,0,1,1-2.41,3,3,0,0,1,2.17-1,4.52,4.52,0,0,1,1.27.21,1.71,1.71,0,0,1,1.06.93A7.38,7.38,0,0,0,115,71.8a13,13,0,0,0,2.72,1.68,16.09,16.09,0,0,0,3.18,1.09,14.64,14.64,0,0,0,3.29.39,15.94,15.94,0,0,0,3.18-.31,8.87,8.87,0,0,0,2.69-1A5.31,5.31,0,0,0,131.88,72a4.56,4.56,0,0,0,.67-2.54,10.16,10.16,0,0,0-1.19-4.87,17.48,17.48,0,0,0-3.08-4.12,29.37,29.37,0,0,0-4.3-3.52q-2.41-1.63-4.79-3.13a3.48,3.48,0,0,1-.78-.91,2.66,2.66,0,0,1-.52-1.53,1.46,1.46,0,0,1,.31-1,26.49,26.49,0,0,1,1.92-2.23,20.67,20.67,0,0,1,2.33-2.1,11.63,11.63,0,0,1,2.69-1.55,7.83,7.83,0,0,1,3-.6,7,7,0,0,1,2.12.31,5.71,5.71,0,0,1,1.66.8A4.22,4.22,0,0,1,133,46.1a2.07,2.07,0,0,1,.39,1.11,2.91,2.91,0,0,1-.36,1.4,6,6,0,0,1-1,1.29,16,16,0,0,1-1.35,1.24Q130,51.77,129.24,52.34Z"/><path d="M141,73.3q1.24-2.64,2.85-5.87T147.12,61q1.63-3.18,3.08-6.06t2.43-4.89l17.08-33.59a4.33,4.33,0,0,1,1-1.29,8.19,8.19,0,0,1,3.23-1.89,6.36,6.36,0,0,1,1.86-.28,4.52,4.52,0,0,1,3.16.85,2.81,2.81,0,0,1,.88,2.1,5.89,5.89,0,0,1-.57,2.41,16.22,16.22,0,0,1-1.29,2.35q-2.28,3.88-4.37,7.84t-4.19,8q-2.1,4-4.22,8t-4.45,7.84q1.45-1.4,3.08-2.9a26.57,26.57,0,0,1,3.55-2.74,19.69,19.69,0,0,1,4.19-2,15.19,15.19,0,0,1,5.07-.8,15.56,15.56,0,0,1,3.16.31,8.17,8.17,0,0,1,2.64,1,5.1,5.1,0,0,1,1.81,1.92,6.08,6.08,0,0,1,.67,3,12.52,12.52,0,0,1-.7,4.27A19,19,0,0,1,182.39,58,32.24,32.24,0,0,1,180,61.32q-1.29,1.58-2.46,3.21a23.37,23.37,0,0,0-2,3.39,11.26,11.26,0,0,0-1.06,3.83.86.86,0,0,1,0,.21.84.84,0,0,0,0,.21q0,1,.7,1.29a5.2,5.2,0,0,0,1.79.26,9.36,9.36,0,0,0,3-.54,19.53,19.53,0,0,0,3.23-1.45,37.54,37.54,0,0,0,3.26-2q1.63-1.14,3.11-2.33t2.72-2.3q1.24-1.11,2.12-1.94a3.39,3.39,0,0,1,1-.62,2.65,2.65,0,0,1,1-.21,2.07,2.07,0,0,1,1.58.7,2.67,2.67,0,0,1,.65,1.89,5.39,5.39,0,0,1-.75,2.48,9.21,9.21,0,0,1-2.56,2.79q-2.85,2.48-5.8,4.76a56.52,56.52,0,0,1-6,4,33.71,33.71,0,0,1-6,2.79,17.68,17.68,0,0,1-5.82,1,9.54,9.54,0,0,1-5.9-1.68q-2.23-1.68-2.23-5.31a13.79,13.79,0,0,1,.91-5,29.26,29.26,0,0,1,2.23-4.55Q168,64,169.51,62a44.27,44.27,0,0,0,2.64-4,10,10,0,0,0,1-1.63,3.94,3.94,0,0,0,.34-1.63,1.9,1.9,0,0,0-.41-1.27,1.6,1.6,0,0,0-1.29-.49,11,11,0,0,0-5.64,1.5,20.75,20.75,0,0,0-4.76,3.83,41,41,0,0,0-4,5.1q-1.86,2.77-3.47,5.3-.73,1.14-1.48,2.61l-1.55,3q-.8,1.55-1.68,3.08a21.32,21.32,0,0,1-1.84,2.72,9.51,9.51,0,0,1-2,1.92,3.86,3.86,0,0,1-2.2.72,3.62,3.62,0,0,1-2.79-1.06,3.77,3.77,0,0,1-1-2.67,8.39,8.39,0,0,1,.41-2.51A24.35,24.35,0,0,1,141,73.3Z"/><path d="M247.61,69.11a44,44,0,0,1-5.3,5,53,53,0,0,1-6.24,4.37,39.31,39.31,0,0,1-6.31,3.08,16.15,16.15,0,0,1-5.59,1.16,5.8,5.8,0,0,1-4-1.4q-1.55-1.4-1.55-4.76a22.21,22.21,0,0,1,.83-5.54A28.81,28.81,0,0,1,216,75.16a27.77,27.77,0,0,1-4.61,3.78,24.33,24.33,0,0,1-5.8,2.77,22.15,22.15,0,0,1-7,1.06,14.67,14.67,0,0,1-3.29-.36,7.36,7.36,0,0,1-2.77-1.24,6.34,6.34,0,0,1-1.92-2.35,8.37,8.37,0,0,1-.72-3.7s.07-.56.21-1.58a29.38,29.38,0,0,1,1.32-4.81q1.11-3.29,3.44-8.51t6.57-12.68A7.27,7.27,0,0,1,204,44.7a5.88,5.88,0,0,1,3.08-.85,6.61,6.61,0,0,1,1.5.18,5.3,5.3,0,0,1,1.45.57,3.33,3.33,0,0,1,1.09,1,2.34,2.34,0,0,1,.41,1.37,3.09,3.09,0,0,1-.16,1,10.73,10.73,0,0,1-1.11,2.3q-.85,1.42-2,3.26t-2.41,4q-1.27,2.12-2.35,4.4a39.36,39.36,0,0,0-1.86,4.63,17.16,17.16,0,0,0-.88,4.58,3,3,0,0,0,.52,1.71,1.9,1.9,0,0,0,1.71.78,12.14,12.14,0,0,0,6.42-1.86,26.87,26.87,0,0,0,5.64-4.63,44.77,44.77,0,0,0,4.68-6q2.1-3.18,3.49-5.82A27,27,0,0,0,225,51.51a33.92,33.92,0,0,1,1.63-3.73,11.28,11.28,0,0,1,2-2.85,3.86,3.86,0,0,1,2.85-1.14,3.8,3.8,0,0,1,3,1.19,4.08,4.08,0,0,1,1.09,2.85,7.05,7.05,0,0,1-.7,2.56Q234.1,52,233,54.12t-2.3,4.48q-1.24,2.38-2.3,4.84a42.83,42.83,0,0,0-1.76,4.81,15.41,15.41,0,0,0-.7,4.37q0,1.86,2.28,1.86a11.4,11.4,0,0,0,4-.93,28.59,28.59,0,0,0,5-2.61,45.35,45.35,0,0,0,5.23-4,33.59,33.59,0,0,0,4.63-4.92Z"/><path d="M296.83,66.57q-.93.88-2.48,2.43t-3.55,3.36q-2,1.81-4.24,3.65A48.49,48.49,0,0,1,282,79.35a31.13,31.13,0,0,1-4.63,2.46,11.12,11.12,0,0,1-4.3,1,5.93,5.93,0,0,1-3.11-.78,6.84,6.84,0,0,1-2.15-2,8.89,8.89,0,0,1-1.27-2.82,12.69,12.69,0,0,1-.41-3.24,14.8,14.8,0,0,1,.16-2.15,9.1,9.1,0,0,1,.52-2q-1.61,2.17-3.65,4.48a36,36,0,0,1-4.4,4.19,25,25,0,0,1-4.92,3.11,12,12,0,0,1-5.2,1.22,11,11,0,0,1-3.13-.54,10.56,10.56,0,0,1-3.39-1.79,10.26,10.26,0,0,1-2.69-3.21,9.83,9.83,0,0,1-1.09-4.81,24.2,24.2,0,0,1,.65-5.07,36.53,36.53,0,0,1,2-6.13,37.67,37.67,0,0,1,3.37-6.29,27.55,27.55,0,0,1,4.84-5.56,23.63,23.63,0,0,1,6.37-4,20.08,20.08,0,0,1,8-1.53,12.62,12.62,0,0,1,4,.57,16.65,16.65,0,0,1,2.9,1.24,14.46,14.46,0,0,1,2.38,1.81q.88-.47,1.81-.88a15.3,15.3,0,0,1,1.63-.65,4.78,4.78,0,0,1,1.47-.28,4.7,4.7,0,0,1,3.21,1.09,3.15,3.15,0,0,1,1.24,2.38,2.47,2.47,0,0,1-.05.57q-.26,1-.8,2.48L280,55.52q-.67,1.84-1.37,3.83t-1.27,3.91q-.57,1.91-.93,3.6a14,14,0,0,0-.36,2.87,5.59,5.59,0,0,0,.52,2.56,1.82,1.82,0,0,0,1.76,1,4.51,4.51,0,0,0,1.84-.49,17.47,17.47,0,0,0,2.3-1.32q1.24-.83,2.56-1.89t2.56-2.15q2.9-2.59,6.16-5.9a2.58,2.58,0,0,1,1.6-.67,2.06,2.06,0,0,1,1.73,1,3.86,3.86,0,0,1,.7,2.25A3.3,3.3,0,0,1,296.83,66.57ZM261,53.22a9.71,9.71,0,0,0-4.71,1.24,14.6,14.6,0,0,0-4,3.26,16.26,16.26,0,0,0-2.79,4.53,13.14,13.14,0,0,0-1,5,18.44,18.44,0,0,0,.13,2.15,6.08,6.08,0,0,0,.59,2A4.25,4.25,0,0,0,250.43,73a3.84,3.84,0,0,0,2.3.62,5.05,5.05,0,0,0,2.67-1,22.21,22.21,0,0,0,3.16-2.59,41.48,41.48,0,0,0,3.18-3.47q1.55-1.89,2.79-3.7a35.6,35.6,0,0,0,2-3.26,5.31,5.31,0,0,0,.78-2.12,2.71,2.71,0,0,0-.67-1.79A6.19,6.19,0,0,0,265,54.35a8.27,8.27,0,0,0-2.1-.85A8,8,0,0,0,261,53.22Z"/><path d="M356.09,33.65a68.58,68.58,0,0,0,8.07-3.83,39.63,39.63,0,0,0,5.8-3.91,17.8,17.8,0,0,0,3.52-3.75,6.18,6.18,0,0,0,1.19-3.31,2.06,2.06,0,0,0-.52-1.19,4.87,4.87,0,0,0-1.58-1.24,11.3,11.3,0,0,0-2.67-1,16,16,0,0,0-3.73-.39,38.8,38.8,0,0,0-10.56,1.37,51.62,51.62,0,0,0-8.85,3.34,53,53,0,0,0-7,4.11q-3.05,2.15-5.12,3.75a22,22,0,0,0-2.25,1.94q-1,1-1.86,1.71a8.53,8.53,0,0,1-1.94,1.22,6,6,0,0,1-2.48.47,5.07,5.07,0,0,1-3.39-1,3.6,3.6,0,0,1-1.22-2.9,8.36,8.36,0,0,1,1.76-4.74,24.76,24.76,0,0,1,4.87-5,48.08,48.08,0,0,1,7.3-4.74,64.24,64.24,0,0,1,9-4,72.3,72.3,0,0,1,10.09-2.74,54.36,54.36,0,0,1,10.53-1,43.45,43.45,0,0,1,9.37.88,21,21,0,0,1,6.44,2.43,10.56,10.56,0,0,1,3.73,3.67,9.11,9.11,0,0,1,1.22,4.61,9.91,9.91,0,0,1-1.66,5.18A24.09,24.09,0,0,1,379.41,29a43.43,43.43,0,0,1-7.5,5.15,69.66,69.66,0,0,1-10,4.48,48.45,48.45,0,0,1,8.93,3.8,22.24,22.24,0,0,1,5.38,4.14A11.51,11.51,0,0,1,378.87,51a16.82,16.82,0,0,1,.67,4.74,14.13,14.13,0,0,1-2,7,25.72,25.72,0,0,1-5.46,6.55A45.31,45.31,0,0,1,363.83,75a64.39,64.39,0,0,1-10.43,4.5,79,79,0,0,1-11.9,2.95,75.82,75.82,0,0,1-12.68,1.06,41.84,41.84,0,0,1-4.61-.26,19.66,19.66,0,0,1-4.27-.93,8.74,8.74,0,0,1-3.16-1.81,3.86,3.86,0,0,1-1.22-3,2.58,2.58,0,0,1,0-.39c0-.12,0-.27.08-.44s.29-.61.47-1a2.84,2.84,0,0,1,1.19-1.16,9.26,9.26,0,0,1,2.92-1,31.78,31.78,0,0,1,5.72-.39q6.47-11.85,10.69-20.42t7.07-14.1a64.1,64.1,0,0,1,4.79-8.18q1.94-2.64,3.8-2.64a5,5,0,0,1,1.6.26,4.9,4.9,0,0,1,1.37.7,3.42,3.42,0,0,1,1,1.09,2.87,2.87,0,0,1,.36,1.42,2,2,0,0,0-.47,1.06Q356.09,33,356.09,33.65Zm-2.85,9.89q-2.33,5.28-4.37,9.47T345,60.7q-1.81,3.49-3.44,6.52l-3.18,5.93A54.64,54.64,0,0,0,349.6,71a39.89,39.89,0,0,0,9.06-3.91,21.28,21.28,0,0,0,6.05-5.23,10,10,0,0,0,2.2-6.11,8.17,8.17,0,0,0-.65-3.05,10.19,10.19,0,0,0-2.2-3.21,19.78,19.78,0,0,0-4.19-3.16A33.72,33.72,0,0,0,353.25,43.54Z"/><path d="M405.73,43.85a18.91,18.91,0,0,1,4.22.52,12.93,12.93,0,0,1,4.17,1.76,10.38,10.38,0,0,1,3.18,3.29,9.41,9.41,0,0,1,1.27,5,17.7,17.7,0,0,1-.41,3.55,27.48,27.48,0,0,1-1.24,4.17,2.9,2.9,0,0,0,1.19.88,4,4,0,0,0,1.45.26,5.73,5.73,0,0,0,2.41-.62,18.35,18.35,0,0,0,2.72-1.6,31.48,31.48,0,0,0,2.79-2.23q1.4-1.24,2.64-2.48T432.36,54q1-1.11,1.68-1.89a1.2,1.2,0,0,1,.88-.36,1.62,1.62,0,0,1,1.29.75,3.41,3.41,0,0,1,.57,2.1,7.65,7.65,0,0,1-.8,3.11,11.54,11.54,0,0,1-3,3.67l-2.85,3.11a38.93,38.93,0,0,1-3.42,3.31A22.66,22.66,0,0,1,423,70.45,8.07,8.07,0,0,1,419,71.54a8.36,8.36,0,0,1-2.61-.41,9.42,9.42,0,0,1-2.56-1.35,31.61,31.61,0,0,1-4.24,5.28,26.09,26.09,0,0,1-5.31,4.09A27,27,0,0,1,398,81.81a26.48,26.48,0,0,1-7.22,1,12,12,0,0,1-3.36-.57,11.32,11.32,0,0,1-3.65-1.89,11,11,0,0,1-2.92-3.44,10.43,10.43,0,0,1-1.19-5.18,22.47,22.47,0,0,1,.67-5,33.2,33.2,0,0,1,2-6,37.64,37.64,0,0,1,3.47-6.11,27.05,27.05,0,0,1,5-5.43,24.25,24.25,0,0,1,6.63-3.88A22.32,22.32,0,0,1,405.73,43.85ZM403,53a9.73,9.73,0,0,0-4.68,1.22,14.2,14.2,0,0,0-4,3.21,16.21,16.21,0,0,0-2.77,4.5,13.39,13.39,0,0,0-1,5.15,16.35,16.35,0,0,0,.16,2.15,7.06,7.06,0,0,0,.65,2.17A4.47,4.47,0,0,0,392.79,73a4.15,4.15,0,0,0,2.48.67,9.33,9.33,0,0,0,4.63-1.27,15,15,0,0,0,4-3.31,16.35,16.35,0,0,0,2.79-4.63,14,14,0,0,0,1-5.23,18.7,18.7,0,0,0-.13-2.15,5.75,5.75,0,0,0-.62-2,4,4,0,0,0-1.42-1.53A4.68,4.68,0,0,0,403,53Z"/><path d="M449.62,43.85a18.91,18.91,0,0,1,4.22.52A12.93,12.93,0,0,1,458,46.13a10.38,10.38,0,0,1,3.18,3.29,9.41,9.41,0,0,1,1.27,5A17.7,17.7,0,0,1,462,58a27.48,27.48,0,0,1-1.24,4.17A2.9,2.9,0,0,0,462,63a4,4,0,0,0,1.45.26,5.73,5.73,0,0,0,2.41-.62,18.35,18.35,0,0,0,2.72-1.6,31.48,31.48,0,0,0,2.79-2.23q1.4-1.24,2.64-2.48T476.25,54q1-1.11,1.68-1.89a1.2,1.2,0,0,1,.88-.36,1.62,1.62,0,0,1,1.29.75,3.41,3.41,0,0,1,.57,2.1,7.65,7.65,0,0,1-.8,3.11,11.54,11.54,0,0,1-3,3.67L474,64.5a38.93,38.93,0,0,1-3.42,3.31,22.66,22.66,0,0,1-3.78,2.64,8.07,8.07,0,0,1-3.93,1.09,8.36,8.36,0,0,1-2.61-.41,9.42,9.42,0,0,1-2.56-1.35,31.61,31.61,0,0,1-4.24,5.28,26.09,26.09,0,0,1-5.31,4.09,27,27,0,0,1-6.31,2.67,26.48,26.48,0,0,1-7.22,1,12,12,0,0,1-3.36-.57,11.32,11.32,0,0,1-3.65-1.89,11,11,0,0,1-2.92-3.44,10.43,10.43,0,0,1-1.19-5.18,22.47,22.47,0,0,1,.67-5,33.2,33.2,0,0,1,2-6,37.64,37.64,0,0,1,3.47-6.11,27.05,27.05,0,0,1,5-5.43,24.25,24.25,0,0,1,6.63-3.88A22.32,22.32,0,0,1,449.62,43.85ZM446.93,53a9.73,9.73,0,0,0-4.68,1.22,14.2,14.2,0,0,0-4,3.21,16.21,16.21,0,0,0-2.77,4.5,13.39,13.39,0,0,0-1,5.15,16.35,16.35,0,0,0,.16,2.15,7.06,7.06,0,0,0,.65,2.17A4.47,4.47,0,0,0,436.68,73a4.15,4.15,0,0,0,2.48.67,9.33,9.33,0,0,0,4.63-1.27,15,15,0,0,0,4-3.31,16.35,16.35,0,0,0,2.79-4.63,14,14,0,0,0,1-5.23,18.7,18.7,0,0,0-.13-2.15,5.75,5.75,0,0,0-.62-2,4,4,0,0,0-1.42-1.53A4.68,4.68,0,0,0,446.93,53Z"/><path d="M486.42,52.7Q484.5,56.42,482.8,60t-3.21,6.55a27.36,27.36,0,0,0-1.22,2.87,8.52,8.52,0,0,0-.6,2.87,1.75,1.75,0,0,0,.34,1.14,1.36,1.36,0,0,0,1.11.41,7.9,7.9,0,0,0,2.74-.65,29.9,29.9,0,0,0,3.57-1.71q1.91-1.06,4-2.43t4.17-2.85q2-1.48,3.91-3T501,60.51a2.79,2.79,0,0,1,1.55-.57,1.73,1.73,0,0,1,1.45.78,3.24,3.24,0,0,1,.57,2,5.82,5.82,0,0,1-.57,2.43,6.91,6.91,0,0,1-2.07,2.43q-3.36,3.05-6.81,5.8a70.59,70.59,0,0,1-6.83,4.84,38.53,38.53,0,0,1-6.7,3.34,18.23,18.23,0,0,1-6.42,1.24,9.64,9.64,0,0,1-3.47-.54,5.76,5.76,0,0,1-2.25-1.5,5.61,5.61,0,0,1-1.22-2.22,9.83,9.83,0,0,1-.36-2.72,17.89,17.89,0,0,1,.88-5.38,36.24,36.24,0,0,1,2-5L473.76,59q1.53-3.16,3-6.06h-2.23q-2.9,0-4-.93a2.75,2.75,0,0,1-1.09-2.12,3.21,3.21,0,0,1,.34-1.27,4.68,4.68,0,0,1,1-1.4,6,6,0,0,1,1.58-1.11,4.68,4.68,0,0,1,2.12-.47h5.59L491,24a6.64,6.64,0,0,1,2.56-2.82,6.43,6.43,0,0,1,3.18-.85,5.18,5.18,0,0,1,2.85.83,3,3,0,0,1,1.29,2.74,5,5,0,0,1-.44,2q-.44,1-1.17,2.35-.47.88-1.14,2.1l-1.42,2.59q-.75,1.37-1.55,2.87t-1.58,2.9l-3.73,7h16.87a18.51,18.51,0,0,1,2.28.13,5.31,5.31,0,0,1,1.79.52,2.9,2.9,0,0,1,1.16,1.06,3.44,3.44,0,0,1,.41,1.81,3.73,3.73,0,0,1-.18,1.14,2.45,2.45,0,0,1-.67,1,3.86,3.86,0,0,1-1.35.78,8.45,8.45,0,0,1-2.2.41Z"/><path d="M493.36,73.3q1.24-2.64,2.85-5.87T499.44,61q1.63-3.18,3.08-6.06t2.43-4.89L522,16.47a4.31,4.31,0,0,1,1-1.29,8.18,8.18,0,0,1,3.23-1.89,6.36,6.36,0,0,1,1.86-.28,4.52,4.52,0,0,1,3.16.85,2.81,2.81,0,0,1,.88,2.1,5.89,5.89,0,0,1-.57,2.41,16.27,16.27,0,0,1-1.29,2.35q-2.28,3.88-4.37,7.84t-4.19,8q-2.09,4-4.22,8T513,52.34q1.45-1.4,3.08-2.9a26.6,26.6,0,0,1,3.55-2.74,19.69,19.69,0,0,1,4.19-2,15.19,15.19,0,0,1,5.07-.8,15.56,15.56,0,0,1,3.16.31,8.18,8.18,0,0,1,2.64,1,5.1,5.1,0,0,1,1.81,1.92,6.08,6.08,0,0,1,.67,3,12.5,12.5,0,0,1-.7,4.27A19,19,0,0,1,534.71,58a32.24,32.24,0,0,1-2.38,3.31q-1.29,1.58-2.46,3.21a23.37,23.37,0,0,0-2,3.39,11.24,11.24,0,0,0-1.06,3.83.84.84,0,0,1,0,.21.83.83,0,0,0,0,.21q0,1,.7,1.29a5.2,5.2,0,0,0,1.79.26,9.36,9.36,0,0,0,3-.54,19.49,19.49,0,0,0,3.23-1.45,37.55,37.55,0,0,0,3.26-2q1.63-1.14,3.11-2.33t2.72-2.3q1.24-1.11,2.12-1.94a3.38,3.38,0,0,1,1-.62,2.65,2.65,0,0,1,1-.21,2.07,2.07,0,0,1,1.58.7,2.67,2.67,0,0,1,.65,1.89,5.4,5.4,0,0,1-.75,2.48,9.23,9.23,0,0,1-2.56,2.79q-2.85,2.48-5.8,4.76a56.52,56.52,0,0,1-6,4,33.74,33.74,0,0,1-6,2.79,17.69,17.69,0,0,1-5.82,1,9.54,9.54,0,0,1-5.9-1.68q-2.23-1.68-2.23-5.31a13.78,13.78,0,0,1,.91-5A29.25,29.25,0,0,1,519,66.23q1.32-2.2,2.82-4.24a44.48,44.48,0,0,0,2.64-4,10,10,0,0,0,1-1.63,3.93,3.93,0,0,0,.34-1.63,1.9,1.9,0,0,0-.41-1.27A1.6,1.6,0,0,0,524,53a11,11,0,0,0-5.64,1.5,20.75,20.75,0,0,0-4.76,3.83,41,41,0,0,0-4,5.1q-1.86,2.77-3.47,5.3-.73,1.14-1.47,2.61l-1.55,3q-.8,1.55-1.68,3.08a21.37,21.37,0,0,1-1.84,2.72,9.54,9.54,0,0,1-2,1.92,3.85,3.85,0,0,1-2.2.72,3.62,3.62,0,0,1-2.79-1.06,3.77,3.77,0,0,1-1-2.67,8.4,8.4,0,0,1,.41-2.51A24.35,24.35,0,0,1,493.36,73.3Z"/></svg>